<svg xmlns:xlink="http://www.w3.org/1999/xlink" width="192" height="47" viewBox="0 0 192 47" fill="none" xmlns="http://www.w3.org/2000/svg">
	<path class="letter" fill-rule="evenodd" clip-rule="evenodd" d="M42.6875 39.4538H51.4674C57.7837 39.4538 60.1577 35.5364 60.1577 30.356C60.1577 26.308 58.5003 24.131 55.6783 22.9126C58.366 21.8674 59.5307 19.0384 59.5307 16.3394C59.5307 10.9852 56.8876 8.02515 50.9302 8.02515H42.6875V39.4538ZM48.2419 12.4652H50.3479C52.8111 12.4652 53.9758 13.9886 53.9758 16.9053C53.9758 19.5171 52.3635 20.91 50.2581 20.91H48.2419V12.4652ZM48.2419 25.35H50.0341C53.3488 25.35 54.6033 26.9606 54.6033 30.1822C54.6033 33.3594 53.5283 35.0138 50.5719 35.0138H48.2419V25.35Z" fill="#FFFFFF"></path>
	<path class="letter" fill-rule="evenodd" clip-rule="evenodd" d="M62.3555 39.4544H67.3721V8.02515H62.3555V39.4544Z" fill="#FFFFFF"></path>
	<path class="letter" fill-rule="evenodd" clip-rule="evenodd" d="M80.8073 16.0369V34.4069C79.6426 35.2338 78.6573 35.8869 77.5823 35.8869C76.5073 35.8869 75.7901 35.3644 75.7901 34.1892V16.0369H70.7734V34.9728C70.7734 38.0201 72.3411 39.8916 74.9837 39.8916C77.8955 39.8916 78.9705 38.8464 81.0764 37.1054V39.4562H85.8245V16.0369H80.8073Z" fill="#FFFFFF"></path>
	<path class="letter" fill-rule="evenodd" clip-rule="evenodd" d="M104.495 24.3057C104.495 19.1686 102.434 15.5994 96.7004 15.5994C90.9665 15.5994 88.9062 19.1686 88.9062 24.3057V31.1832C88.9062 36.3202 90.9665 39.8895 96.7004 39.8895C102.3 39.8895 104.405 36.4941 104.495 31.5314H99.4778V32.054C99.4778 34.753 98.492 35.8848 96.7004 35.8848C94.9087 35.8848 93.9229 34.753 93.9229 32.054V28.6586H104.495V24.3057ZM93.9229 24.6539V23.4349C93.9229 20.7359 94.9087 19.604 96.7004 19.604C98.492 19.604 99.4778 20.7359 99.4778 23.4349V24.6539H93.9229Z" fill="#FFFFFF"></path>
	<path class="letter" fill-rule="evenodd" clip-rule="evenodd" d="M187.614 10.0038H187.177V11.1629H187.446C188.067 11.1629 188.269 10.82 188.269 10.5098C188.269 10.1503 188.102 10.0038 187.614 10.0038ZM188.303 13.2532L187.227 11.5876H187.177V13.2532H186.505V9.48118H187.681C188.605 9.48118 188.975 9.85667 188.975 10.4285C188.975 11.065 188.572 11.457 187.95 11.5223C188.034 11.6202 188.185 11.8325 188.337 12.0609L189.143 13.2532H188.303ZM184.908 11.3586C184.908 12.8285 186.135 14.102 187.647 14.102C189.177 14.102 190.386 12.8937 190.386 11.4244C190.386 9.93851 189.177 8.681 187.647 8.681C186.135 8.681 184.908 9.8893 184.908 11.3586ZM191.193 11.3918C191.193 13.2532 189.563 14.8204 187.647 14.8204C185.648 14.8204 184.119 13.3184 184.119 11.3918C184.119 9.49776 185.698 7.96265 187.647 7.96265C189.647 7.96265 191.193 9.44855 191.193 11.3918Z" fill="#FFFFFF"></path>
	<path class="letter" fill-rule="evenodd" clip-rule="evenodd" d="M108.922 20.0368V34.6193C108.922 38.1891 111.027 39.8868 114.79 39.8868C116.044 39.8868 116.626 39.7996 117.298 39.6253V35.4468H115.641C114.476 35.4468 113.939 34.7503 113.939 33.5313V20.0368H117.298V16.0321H113.939V9.72046H108.922V16.0321H106.145V20.0368H108.922Z" fill="#FFFFFF"></path>
	<path class="letter" fill-rule="evenodd" clip-rule="evenodd" d="M119.389 31.1832C119.389 36.3202 121.449 39.8895 127.183 39.8895C132.917 39.8895 134.977 36.3202 134.977 31.1832V24.3057C134.977 19.1686 132.917 15.5994 127.183 15.5994C121.449 15.5994 119.389 19.1686 119.389 24.3057V31.1832ZM129.961 32.054C129.961 34.753 128.976 35.8848 127.183 35.8848C125.392 35.8848 124.406 34.753 124.406 32.054V23.4349C124.406 20.7359 125.392 19.604 127.183 19.604C128.976 19.604 129.961 20.7359 129.961 23.4349V32.054Z" fill="#FFFFFF"></path>
	<path class="letter" fill-rule="evenodd" clip-rule="evenodd" d="M137.615 31.1832C137.615 36.3202 139.675 39.8895 145.409 39.8895C151.143 39.8895 153.204 36.3202 153.204 31.1832V24.3057C153.204 19.1686 151.143 15.5994 145.409 15.5994C139.675 15.5994 137.615 19.1686 137.615 24.3057V31.1832ZM148.187 32.054C148.187 34.753 147.201 35.8848 145.409 35.8848C143.618 35.8848 142.632 34.753 142.632 32.054V23.4349C142.632 20.7359 143.618 19.604 145.409 19.604C147.201 19.604 148.187 20.7359 148.187 23.4349V32.054Z" fill="#FFFFFF"></path>
	<path class="letter" fill-rule="evenodd" clip-rule="evenodd" d="M157.493 20.0368V34.6193C157.493 38.1891 159.599 39.8868 163.362 39.8868C164.616 39.8868 165.198 39.7996 165.871 39.6253V35.4468H164.213C163.048 35.4468 162.511 34.7503 162.511 33.5313V20.0368H165.871V16.0321H162.511V9.72046H157.493V16.0321H154.717V20.0368H157.493Z" fill="#FFFFFF"></path>
	<path class="letter" fill-rule="evenodd" clip-rule="evenodd" d="M174.013 39.4538V21.0838C175.177 20.2569 176.163 19.6038 177.238 19.6038C178.313 19.6038 179.03 20.1264 179.03 21.3015V39.4538H184.047V20.5179C184.047 17.4712 182.479 15.5991 179.837 15.5991C176.925 15.5991 175.85 16.6437 174.013 18.2109V8.02515H168.996V39.4538H174.013Z" fill="#FFFFFF"></path>
	<path class="symbol" fill-rule="evenodd" clip-rule="evenodd" d="M30.933 23.5261C30.933 35.408 24.941 45.0407 17.5498 45.0407C10.158 45.0407 4.16602 35.408 4.16602 23.5261C4.16602 11.6437 10.158 2.01147 17.5498 2.01147C24.941 2.01147 30.933 11.6437 30.933 23.5261Z" fill="#000000" fill-opacity="0"></path>
	<path class="oval" fill-rule="evenodd" clip-rule="evenodd" d="M17.5374 46.5012C27.7694 46.5012 34.8216 41.7777 34.8216 23.7312C34.8216 5.68479 27.7694 0.960693 17.5374 0.960693C7.30544 0.960693 0.25 5.68479 0.25 23.7312C0.25 41.7777 7.30544 46.5012 17.5374 46.5012ZM15.2939 23.7312L6.91684 15.57L9.34424 13.2111L16.0193 19.6977V4.15181L28.1542 15.9439L20.1404 23.7312L28.1542 31.5186L16.0193 43.3107V27.7648L9.34424 34.2513L6.91684 31.8925L15.2939 23.7312ZM19.4298 35.2564L23.3049 31.4913L19.4331 27.7284L19.4298 35.2564ZM19.4298 12.2061L23.3049 15.9711L19.4331 19.734L19.4298 12.2061Z" fill="#FFFFFF"></path>
</svg>